<svg width="24" height="21" viewBox="0 0 24 21" fill="none" xmlns="http://www.w3.org/2000/svg">
<path fill-rule="evenodd" clip-rule="evenodd" d="M4.09859 1.93103C2.38729 1.93103 1 3.31831 1 5.02962V17.3921C1 19.1034 2.38729 20.4907 4.09859 20.4907H16.4736C18.1849 20.4907 19.5721 19.1034 19.5721 17.3921V5.02962C19.5721 4.56273 19.4689 4.11996 19.284 3.7229C18.7311 2.47947 17.5717 2.12849 17.5354 2.11774C17.5348 2.11757 17.5345 2.11748 17.5345 2.11748C15.9751 3.57128 14.8252 4.84968 13.6999 6.10071C12.9859 6.89452 12.2818 7.67732 11.4893 8.48691L10.0176 6.73645C8.91171 5.46834 6.99727 5.34563 5.74153 6.46236C4.48579 7.5791 4.36428 9.5124 5.47012 10.7805L9.56626 15.4669C10.1434 16.1287 10.9753 16.5069 11.8485 16.5044C12.7218 16.5019 13.5516 16.119 14.125 15.4539L19.5718 9.2001V5.17889C19.5718 4.59374 19.4579 4.11414 19.284 3.7229C18.9388 2.98181 18.3091 2.39996 17.5354 2.11774C17.2042 1.99694 16.8466 1.93103 16.4736 1.93103H4.09859Z" fill="url(#paint0_linear_35_11)"/>
<path d="M17.5345 2.11748L17.6035 1.87721L17.4675 1.83813L17.364 1.93462L17.5345 2.11748ZM13.6999 6.10071L13.8858 6.26789L13.6999 6.10071ZM11.4893 8.48691L11.2979 8.64779L11.4752 8.85866L11.6679 8.6618L11.4893 8.48691ZM10.0176 6.73645L10.2089 6.57554L10.206 6.57214L10.0176 6.73645ZM5.74153 6.46236L5.5754 6.27555L5.74153 6.46236ZM5.47012 10.7805L5.2817 10.9448L5.28189 10.945L5.47012 10.7805ZM9.56626 15.4669L9.75468 15.3026L9.75449 15.3024L9.56626 15.4669ZM14.125 15.4539L13.9365 15.2897L13.9356 15.2906L14.125 15.4539ZM19.5718 9.2001L19.7604 9.36429L19.8218 9.29371V9.2001H19.5718ZM1.25 5.02962C1.25 3.45638 2.52536 2.18103 4.09859 2.18103V1.68103C2.24922 1.68103 0.75 3.18024 0.75 5.02962H1.25ZM1.25 17.3921V5.02962H0.75V17.3921H1.25ZM4.09859 20.2407C2.52536 20.2407 1.25 18.9653 1.25 17.3921H0.75C0.75 19.2415 2.24922 20.7407 4.09859 20.7407V20.2407ZM16.4736 20.2407H4.09859V20.7407H16.4736V20.2407ZM19.3221 17.3921C19.3221 18.9653 18.0468 20.2407 16.4736 20.2407V20.7407C18.3229 20.7407 19.8221 19.2415 19.8221 17.3921H19.3221ZM19.3221 5.02962V17.3921H19.8221V5.02962H19.3221ZM19.0573 3.82845C19.2272 4.19313 19.3221 4.59994 19.3221 5.02962H19.8221C19.8221 4.52552 19.7106 4.04679 19.5106 3.61735L19.0573 3.82845ZM17.4645 2.3575C17.4817 2.36257 18.5488 2.68477 19.0555 3.82447L19.5124 3.62133C18.9134 2.27417 17.6618 1.8944 17.6062 1.87798L17.4645 2.3575ZM17.5345 2.11748C17.4655 2.35776 17.4655 2.35776 17.4654 2.35776C17.4654 2.35776 17.4654 2.35776 17.4654 2.35776C17.4654 2.35776 17.4654 2.35776 17.4654 2.35776C17.4654 2.35776 17.4654 2.35775 17.4654 2.35775C17.4654 2.35775 17.4654 2.35775 17.4654 2.35775C17.4654 2.35774 17.4654 2.35774 17.4653 2.35773C17.4653 2.35772 17.4653 2.35771 17.4652 2.3577C17.4652 2.35768 17.4651 2.35766 17.4651 2.35765C17.4649 2.35761 17.4648 2.35759 17.4648 2.35756C17.4646 2.35752 17.4645 2.35749 17.4645 2.35749L17.6062 1.87799C17.6056 1.87782 17.6051 1.87766 17.6047 1.87753C17.6044 1.87747 17.6042 1.87741 17.604 1.87735C17.6039 1.87733 17.6039 1.8773 17.6038 1.87727C17.6037 1.87726 17.6037 1.87725 17.6036 1.87724C17.6036 1.87723 17.6036 1.87723 17.6036 1.87722C17.6036 1.87722 17.6036 1.87722 17.6036 1.87721C17.6036 1.87721 17.6036 1.87721 17.6035 1.87721C17.6035 1.87721 17.6035 1.87721 17.6035 1.87721C17.6035 1.87721 17.6035 1.87721 17.6035 1.87721C17.6035 1.87721 17.6035 1.87721 17.5345 2.11748ZM13.8858 6.26789C15.011 5.0169 16.1544 3.74587 17.705 2.30034L17.364 1.93462C15.7958 3.39669 14.6393 4.68247 13.5141 5.93352L13.8858 6.26789ZM11.6679 8.6618C12.4647 7.84787 13.1722 7.06126 13.8858 6.26789L13.5141 5.93352C12.7996 6.72779 12.0989 7.50677 11.3106 8.31203L11.6679 8.6618ZM9.8262 6.89733L11.2979 8.64779L11.6806 8.32603L10.2089 6.57556L9.8262 6.89733ZM5.90767 6.64918C7.0593 5.62503 8.81447 5.73721 9.82913 6.90076L10.206 6.57214C9.00895 5.19948 6.93524 5.06623 5.5754 6.27555L5.90767 6.64918ZM5.65854 10.6162C4.64263 9.45122 4.75461 7.6746 5.90767 6.64918L5.5754 6.27555C4.21698 7.4836 4.08593 9.57358 5.2817 10.9448L5.65854 10.6162ZM9.75449 15.3024L5.65835 10.616L5.28189 10.945L9.37803 15.6314L9.75449 15.3024ZM11.8478 16.2544C11.0475 16.2567 10.2845 15.9101 9.75468 15.3026L9.37784 15.6312C10.0023 16.3473 10.903 16.7571 11.8493 16.7544L11.8478 16.2544ZM13.9356 15.2906C13.4092 15.9012 12.6482 16.2521 11.8478 16.2544L11.8493 16.7544C12.7955 16.7517 13.6939 16.3368 14.3143 15.6171L13.9356 15.2906ZM19.3833 9.0359L13.9365 15.2897L14.3135 15.618L19.7604 9.36429L19.3833 9.0359ZM19.3218 5.17889V9.2001H19.8218V5.17889H19.3218ZM19.0555 3.82447C19.2146 4.18235 19.3218 4.62718 19.3218 5.17889H19.8218C19.8218 4.5603 19.7012 4.04594 19.5124 3.62133L19.0555 3.82447ZM17.4497 2.35261C18.1608 2.61197 18.74 3.14706 19.0573 3.82845L19.5106 3.61735C19.1376 2.81657 18.4575 2.18796 17.621 1.88288L17.4497 2.35261ZM16.4736 2.18103C16.8169 2.18103 17.1455 2.24167 17.4497 2.35261L17.621 1.88288C17.2628 1.75221 16.8762 1.68103 16.4736 1.68103V2.18103ZM4.09859 2.18103H16.4736V1.68103H4.09859V2.18103Z" fill="white"/>
<path fill-rule="evenodd" clip-rule="evenodd" d="M22.3253 1.45495C23.1161 2.12616 23.199 3.29524 22.5105 4.06618L12.8839 14.3405C12.5246 14.7428 12.0046 14.9745 11.4573 14.976C10.9101 14.9775 10.3888 14.7487 10.0271 14.3484L6.32448 10.1011C5.63148 9.33395 5.70763 8.16441 6.49457 7.48885C7.28151 6.8133 8.48124 6.88753 9.17424 7.65465L11.4438 10.3157L19.6466 1.63553C20.3351 0.864593 21.5344 0.783745 22.3253 1.45495Z" fill="url(#paint1_linear_35_11)" stroke="white" stroke-width="0.5"/>
<defs>
<linearGradient id="paint0_linear_35_11" x1="2.72153" y1="0.248296" x2="26.5396" y2="7.86196" gradientUnits="userSpaceOnUse">
<stop stop-color="#C54A92"/>
<stop offset="1" stop-color="#2E62EB"/>
</linearGradient>
<linearGradient id="paint1_linear_35_11" x1="7.3653" y1="1.91109" x2="25.4129" y2="9.00804" gradientUnits="userSpaceOnUse">
<stop stop-color="#C54A92"/>
<stop offset="1" stop-color="#2E62EB"/>
</linearGradient>
</defs>
</svg>
