<svg width="18" height="26" viewBox="0 0 18 26" fill="none" xmlns="http://www.w3.org/2000/svg">
<path d="M11.5924 13.132C11.3834 14.0377 11.9685 14.9845 12.9299 15.1903C13.8913 15.3961 14.8526 14.8198 15.0616 13.9142L17.6113 3.12891C17.8203 2.22327 17.2351 1.27648 16.2738 1.07065C15.3124 0.864824 14.351 1.44114 14.1421 2.34677L11.5924 13.132Z" fill="url(#paint0_linear_8402_109)" stroke="white" stroke-width="0.5"/>
<path d="M14.8948 14.2015C14.8948 14.2015 11.2583 10.6613 4.8214 12.4314C4.8214 12.4314 1.01776 13.0901 1.22675 14.9837C1.22675 14.9837 1.10136 19.6765 2.73149 22.4757C4.74624 25.8725 12.016 26.4521 15.637 22.4757C16.4482 21.5849 16.3713 20.7844 16.8073 19.3756C16.8073 17.8983 16.8073 14.4513 14.8948 14.2015Z" fill="url(#paint1_linear_8402_109)" stroke="white" stroke-width="0.5"/>
<path d="M8.41449 13.749C8.58168 14.6958 9.54304 15.2721 10.5044 15.1074C11.4658 14.9428 12.1345 14.0371 11.9673 13.0903L9.87743 2.22273C9.71023 1.27593 8.74887 0.699617 7.78751 0.864278C6.82616 1.02894 6.15738 1.93457 6.36637 2.88137L8.41449 13.749" fill="url(#paint2_linear_8402_109)"/>
<path d="M8.41449 13.749C8.58168 14.6958 9.54304 15.2721 10.5044 15.1074C11.4658 14.9428 12.1345 14.0371 11.9673 13.0903L9.87743 2.22273C9.71023 1.27593 8.74887 0.699617 7.78751 0.864278C6.82616 1.02894 6.15738 1.93457 6.36637 2.88137L8.41449 13.749" stroke="white" stroke-width="0.5"/>
<path d="M1.01898 13.2145C0.893589 12.2677 1.60416 11.4033 2.60732 11.2798H2.64911C3.61047 11.1974 4.53003 11.8561 4.61363 12.844L4.90622 15.5198C5.03161 16.4666 4.32104 17.331 3.31789 17.4545H3.27609C2.27293 17.5369 1.39517 16.8782 1.31157 15.8903L1.01898 13.2145" fill="url(#paint3_linear_8402_109)"/>
<path d="M1.01898 13.2145C0.893589 12.2677 1.60416 11.4033 2.60732 11.2798H2.64911C3.61047 11.1974 4.53003 11.8561 4.61363 12.844L4.90622 15.5198C5.03161 16.4666 4.32104 17.331 3.31789 17.4545H3.27609C2.27293 17.5369 1.39517 16.8782 1.31157 15.8903L1.01898 13.2145" stroke="white" stroke-width="0.5"/>
<path d="M4.40106 11.2797C4.27567 10.3329 4.98624 9.46844 5.98939 9.34495H6.03119C7.03435 9.26262 7.91211 9.92126 7.99571 10.9092L8.2883 13.585C8.41369 14.5318 7.70312 15.3962 6.69996 15.5197H6.65817C5.65501 15.6021 4.77725 14.9434 4.69365 13.9554L4.40106 11.2797" fill="url(#paint4_linear_8402_109)"/>
<path d="M4.40106 11.2797C4.27567 10.3329 4.98624 9.46844 5.98939 9.34495H6.03119C7.03435 9.26262 7.91211 9.92126 7.99571 10.9092L8.2883 13.585C8.41369 14.5318 7.70312 15.3962 6.69996 15.5197H6.65817C5.65501 15.6021 4.77725 14.9434 4.69365 13.9554L4.40106 11.2797" stroke="white" stroke-width="0.5"/>
<path d="M2.7222 16.8789C3.72536 16.7554 4.39413 15.9321 4.31054 14.9441L4.01795 12.2683C3.97615 12.0214 3.85076 11.7332 3.72536 11.4862C4.35234 11.7744 4.56133 12.2683 4.64492 12.8447L4.93751 15.5204C5.06291 16.4672 4.35234 17.3317 3.39098 17.414C2.68041 17.4963 2.01163 17.1258 1.67725 16.5907C1.92804 16.7965 2.30422 16.92 2.7222 16.8789" fill="white"/>
<path d="M6.06056 14.9439C7.06372 14.8204 7.77428 13.9971 7.64889 13.0503L7.3563 10.3745C7.3145 10.1276 7.18911 9.79823 7.06372 9.59241C7.64889 9.92173 7.89968 10.4157 7.98328 10.992L8.27586 13.6678C8.40126 14.6146 7.69069 15.4379 6.68753 15.5614H6.64573C5.93516 15.6437 5.26639 15.2732 4.93201 14.7381C5.26639 14.9027 5.64258 14.985 6.06056 14.9439" fill="white"/>
<path d="M13.2994 16.7961C11.2931 15.8493 6.7371 17.4959 7.65666 21.6125C7.65666 17.3313 11.5857 16.5903 13.2994 16.7961Z" fill="white"/>
<path d="M12.5419 12.5561C11.079 11.6916 10.8282 13.0501 8.36211 13.1324C7.27535 13.1736 6.81557 15.3553 8.4457 16.1374C10.7028 17.2489 10.87 15.6846 11.4552 16.3021C12.0404 16.9607 12.5837 17.0842 13.0853 17.8252C13.4615 18.3604 16.262 17.5371 16.5546 16.4256C17.0979 14.2438 14.799 13.9145 12.5419 12.5561Z" fill="white"/>
<path d="M12.7199 12.9263C11.2152 12.0618 10.9226 13.4203 8.37288 13.5026C7.24433 13.5438 6.74275 15.8079 8.45648 16.6312C10.7972 17.7838 11.0062 16.1372 11.5496 16.7958C12.1765 17.4545 12.7199 17.6191 13.2633 18.4013C13.6395 18.9776 12.6363 21.1182 12.6363 21.1182C12.6363 21.1182 15.5204 23.1353 16.1056 21.9827C17.1923 19.8421 16.8997 18.1955 16.8579 16.9605C16.7743 14.0378 15.1024 14.3259 12.7199 12.9263" fill="url(#paint5_linear_8402_109)"/>
<path d="M12.7199 12.9263C11.2152 12.0618 10.9226 13.4203 8.37288 13.5026C7.24433 13.5438 6.74275 15.8079 8.45648 16.6312C10.7972 17.7838 11.0062 16.1372 11.5496 16.7958C12.1765 17.4545 12.7199 17.6191 13.2633 18.4013C13.6395 18.9776 12.6363 21.1182 12.6363 21.1182C12.6363 21.1182 15.5204 23.1353 16.1056 21.9827C17.1923 19.8421 16.8997 18.1955 16.8579 16.9605C16.7743 14.0378 15.1024 14.3259 12.7199 12.9263" stroke="white" stroke-width="0.5"/>
<defs>
<linearGradient id="paint0_linear_8402_109" x1="12.1159" y1="-0.25881" x2="20.5836" y2="0.903585" gradientUnits="userSpaceOnUse">
<stop stop-color="#C54A92"/>
<stop offset="1" stop-color="#2E62EB"/>
</linearGradient>
<linearGradient id="paint1_linear_8402_109" x1="2.70574" y1="10.7041" x2="22.5593" y2="18.195" gradientUnits="userSpaceOnUse">
<stop stop-color="#C54A92"/>
<stop offset="1" stop-color="#2E62EB"/>
</linearGradient>
<linearGradient id="paint2_linear_8402_109" x1="6.85312" y1="-0.460142" x2="14.7344" y2="0.537284" gradientUnits="userSpaceOnUse">
<stop stop-color="#C54A92"/>
<stop offset="1" stop-color="#2E62EB"/>
</linearGradient>
<linearGradient id="paint3_linear_8402_109" x1="1.36762" y1="10.7117" x2="6.68553" y2="11.7866" gradientUnits="userSpaceOnUse">
<stop stop-color="#C54A92"/>
<stop offset="1" stop-color="#2E62EB"/>
</linearGradient>
<linearGradient id="paint4_linear_8402_109" x1="4.7497" y1="8.77691" x2="10.0676" y2="9.85183" gradientUnits="userSpaceOnUse">
<stop stop-color="#C54A92"/>
<stop offset="1" stop-color="#2E62EB"/>
</linearGradient>
<linearGradient id="paint5_linear_8402_109" x1="8.2313" y1="11.7603" x2="20.5483" y2="15.6474" gradientUnits="userSpaceOnUse">
<stop stop-color="#C54A92"/>
<stop offset="1" stop-color="#2E62EB"/>
</linearGradient>
</defs>
</svg>
