<svg width="17" height="27" viewBox="0 0 17 27" fill="none" xmlns="http://www.w3.org/2000/svg">
<path d="M15.9499 8.93297C15.9499 13.5508 12.5408 14.2679 12.5408 18.5716C12.5408 20.7934 10.4115 20.9806 8.7908 20.9806C7.39103 20.9806 4.30034 20.4219 4.30034 18.5702C4.30034 14.2687 0.94989 13.5515 0.94989 8.93297C0.94989 4.60777 4.5533 1.10156 8.50648 1.10156C12.461 1.10156 15.9499 4.60777 15.9499 8.93297Z" fill="url(#paint0_linear_36_3)" stroke="white" stroke-width="0.5"/>
<path d="M11.2923 24.3086C11.2923 24.9024 9.76914 26.1015 8.45118 26.1015C7.13323 26.1015 5.61005 24.9024 5.61005 24.3086C5.61005 23.7148 7.13255 23.95 8.45118 23.95C9.76914 23.95 11.2923 23.7148 11.2923 24.3086Z" fill="url(#paint1_linear_36_3)" stroke="white" stroke-width="0.5"/>
<path d="M11.6577 8.38264C11.5944 8.31598 11.5193 8.2631 11.4366 8.22702C11.3538 8.19094 11.2652 8.17236 11.1756 8.17236C11.0861 8.17236 10.9974 8.19094 10.9147 8.22702C10.832 8.2631 10.7568 8.31598 10.6936 8.38264L8.44836 10.7443L6.20313 8.38264C6.13983 8.31605 6.06467 8.26323 5.98196 8.2272C5.89925 8.19116 5.81061 8.17262 5.72108 8.17262C5.63156 8.17262 5.54291 8.19116 5.4602 8.2272C5.37749 8.26323 5.30234 8.31605 5.23904 8.38264C5.17573 8.44922 5.12552 8.52827 5.09126 8.61527C5.057 8.70226 5.03937 8.7955 5.03937 8.88967C5.03937 8.98383 5.057 9.07708 5.09126 9.16407C5.12552 9.25107 5.17573 9.33012 5.23904 9.3967L7.76654 12.0552V19.6471C7.76654 19.8373 7.83837 20.0197 7.96624 20.1542C8.0941 20.2887 8.26753 20.3643 8.44836 20.3643C8.62918 20.3643 8.80261 20.2887 8.93047 20.1542C9.05834 20.0197 9.13017 19.8373 9.13017 19.6471V12.0552L11.6577 9.3967C11.721 9.33016 11.7713 9.25113 11.8056 9.16412C11.8399 9.07712 11.8576 8.98386 11.8576 8.88967C11.8576 8.79548 11.8399 8.70222 11.8056 8.61522C11.7713 8.52821 11.721 8.44918 11.6577 8.38264V8.38264Z" fill="white"/>
<path d="M13.107 22.4453C13.107 22.7038 12.9652 22.9517 12.7128 23.1345C12.4604 23.3173 12.1181 23.42 11.7612 23.42H6.37822C6.02131 23.42 5.67901 23.3173 5.42663 23.1345C5.17425 22.9517 5.03247 22.7038 5.03247 22.4453V19.521H13.107V22.4453Z" fill="white"/>
<path d="M4.3555 23.9495C4.18476 23.9488 4.02048 23.8808 3.89512 23.7589C3.76976 23.637 3.69246 23.47 3.67849 23.291C3.66453 23.112 3.71491 22.934 3.81969 22.7922C3.92447 22.6504 4.07602 22.5552 4.24437 22.5252L12.4262 21.0909C12.5145 21.0749 12.605 21.0775 12.6924 21.0986C12.7798 21.1196 12.8623 21.1587 12.9352 21.2135C13.0081 21.2683 13.07 21.3378 13.1172 21.418C13.1644 21.4981 13.1961 21.5873 13.2103 21.6804C13.225 21.7733 13.2222 21.8683 13.202 21.96C13.1818 22.0517 13.1446 22.1384 13.0926 22.215C13.0405 22.2916 12.9746 22.3566 12.8986 22.4064C12.8227 22.4562 12.7381 22.4897 12.6498 22.5051L4.468 23.9395C4.43086 23.9463 4.39321 23.9497 4.3555 23.9495V23.9495ZM4.3555 21.0809C4.18476 21.0802 4.02048 21.0122 3.89512 20.8902C3.76976 20.7683 3.69246 20.6014 3.67849 20.4224C3.66453 20.2434 3.71491 20.0654 3.81969 19.9236C3.92447 19.7818 4.07602 19.6865 4.24437 19.6566L12.4262 18.2222C12.5145 18.2064 12.605 18.209 12.6923 18.2301C12.7796 18.2512 12.8622 18.2903 12.9351 18.3451C13.008 18.3999 13.0698 18.4694 13.1171 18.5495C13.1643 18.6296 13.196 18.7187 13.2103 18.8118C13.225 18.9046 13.2222 18.9996 13.202 19.0914C13.1818 19.1831 13.1446 19.2697 13.0926 19.3463C13.0405 19.4229 12.9746 19.488 12.8986 19.5378C12.8227 19.5875 12.7381 19.6211 12.6498 19.6365L4.468 21.0708C4.43086 21.0777 4.39321 21.081 4.3555 21.0809V21.0809Z" fill="url(#paint2_linear_36_3)" stroke="white" stroke-width="0.5"/>
<defs>
<linearGradient id="paint0_linear_36_3" x1="2.34031" y1="-0.700793" x2="22.3786" y2="4.12927" gradientUnits="userSpaceOnUse">
<stop stop-color="#C54A92"/>
<stop offset="1" stop-color="#2E62EB"/>
</linearGradient>
<linearGradient id="paint1_linear_36_3" x1="6.13676" y1="23.7048" x2="7.8138" y2="27.322" gradientUnits="userSpaceOnUse">
<stop stop-color="#C54A92"/>
<stop offset="1" stop-color="#2E62EB"/>
</linearGradient>
<linearGradient id="paint2_linear_36_3" x1="4.56082" y1="17.6918" x2="10.0036" y2="25.2432" gradientUnits="userSpaceOnUse">
<stop stop-color="#C54A92"/>
<stop offset="1" stop-color="#2E62EB"/>
</linearGradient>
</defs>
</svg>
