<svg width="31" height="22" viewBox="0 0 31 22" fill="none" xmlns="http://www.w3.org/2000/svg">
<path d="M21.0409 1H17.0655C16.6953 1 16.3389 1.15767 16.0659 1.44147L11.5167 6.17154C11.5121 6.1768 11.5075 6.18731 11.5028 6.19256C10.7346 7.01244 10.7485 8.32109 11.4056 9.13572C11.9934 9.86625 13.229 10.0607 14.0019 9.27762C14.0065 9.27236 14.0158 9.27236 14.0204 9.26711L17.718 5.41999C18.0189 5.1099 18.4909 5.13093 18.7639 5.47254C19.0416 5.81416 19.0185 6.34498 18.7177 6.66031L17.5098 7.91641L24.248 14.1286C24.3822 14.2547 24.5025 14.3913 24.6136 14.5333V4.3636L22.0867 1.49403C21.8137 1.17869 21.4342 1 21.0409 1V1ZM26.0991 4.37412V16.1415C26.0991 17.0717 26.7609 17.8233 27.58 17.8233H30.5419V4.37412H26.0991ZM28.3205 16.1415C27.9132 16.1415 27.58 15.7631 27.58 15.3006C27.58 14.8381 27.9132 14.4597 28.3205 14.4597C28.7277 14.4597 29.0609 14.8381 29.0609 15.3006C29.0609 15.7631 28.7277 16.1415 28.3205 16.1415ZM0.923523 17.818H3.88536C4.70449 17.818 5.36627 17.0665 5.36627 16.1362V4.37412H0.923523V17.818ZM3.1449 14.4597C3.55215 14.4597 3.88536 14.8381 3.88536 15.3006C3.88536 15.7631 3.55215 16.1415 3.1449 16.1415C2.73765 16.1415 2.40444 15.7631 2.40444 15.3006C2.40444 14.8328 2.73765 14.4597 3.1449 14.4597ZM23.3178 15.4372L16.4084 9.06739L15.02 10.5127C13.6455 11.937 11.5398 11.8003 10.3135 10.2814C9.06857 8.73629 9.16575 6.34498 10.5171 4.93647L14.3027 1H10.4245C10.0312 1 9.6563 1.17869 9.37863 1.49403L6.84719 4.3636V16.131H7.69409L11.8823 20.4353C13.1503 21.6073 15.0154 21.3866 16.0474 19.9466L16.0566 19.936L16.885 20.7507C17.6209 21.4339 18.7084 21.3025 19.3054 20.4669L20.7586 18.4382L21.0085 18.6694C21.6425 19.2528 22.5773 19.1477 23.091 18.4224L23.5306 17.8075C24.049 17.0822 23.9518 16.0259 23.3178 15.4372V15.4372Z" fill="url(#paint0_linear_6472_200)" stroke="white" stroke-width="0.5"/>
<defs>
<linearGradient id="paint0_linear_6472_200" x1="3.66898" y1="-0.830455" x2="37.9956" y2="15.2565" gradientUnits="userSpaceOnUse">
<stop stop-color="#C54A92"/>
<stop offset="1" stop-color="#2E62EB"/>
</linearGradient>
</defs>
</svg>
